<?xml version="1.0" standalone="no"?>
<!DOCTYPE svg PUBLIC "-//W3C//DTD SVG 20010904//EN"
 "http://www.w3.org/TR/2001/REC-SVG-20010904/DTD/svg10.dtd">
<svg version="1.0" xmlns="http://www.w3.org/2000/svg"
 width="260.000000pt" height="260.000000pt" viewBox="0 0 260.000000 260.000000"
 preserveAspectRatio="xMidYMid meet">
<metadata>
Created by potrace 1.11, written by Peter Selinger 2001-2013
</metadata>
<g transform="translate(0.000000,260.000000) scale(0.100000,-0.100000)"
fill="#000000" stroke="none">
<path d="M5 1795 l0 -805 27 0 c23 0 28 5 29 25 0 14 0 365 0 780 0 415 0 766
0 780 -1 20 -6 25 -29 25 l-27 0 0 -805z"/>
<path d="M130 1795 l0 -805 30 0 30 0 0 805 0 805 -30 0 -30 0 0 -805z"/>
<path d="M259 2598 c-1 -2 -2 -364 -3 -805 l-1 -803 27 0 c24 0 28 4 29 28 3
90 4 1559 1 1570 -3 10 -49 18 -53 10z"/>
<path d="M377 1813 c1 -433 2 -796 2 -805 1 -13 9 -18 29 -18 l27 0 0 803 0
802 -30 3 -30 3 2 -788z"/>
<path d="M500 1795 l0 -805 30 0 30 0 0 805 0 805 -30 0 -30 0 0 -805z"/>
<path d="M629 2568 c0 -35 0 -1531 1 -1560 0 -13 8 -18 28 -18 l27 0 0 805 1
805 -28 0 c-25 0 -28 -4 -29 -32z"/>
<path d="M750 1795 l1 -805 29 0 30 0 0 805 0 805 -30 0 -30 0 0 -805z"/>
<path d="M879 2583 c-1 -23 -1 -1564 0 -1580 1 -7 13 -13 29 -13 l27 0 0 805
0 805 -27 0 c-20 0 -28 -5 -29 -17z"/>
<path d="M985 2573 l1 -28 807 -3 807 -2 0 30 0 30 -808 0 -809 0 2 -27z"/>
<path d="M989 2470 c-8 -31 -4 -50 10 -51 21 -1 1583 -1 1594 0 5 1 7 13 5 29
l-3 27 -802 0 c-442 0 -804 -2 -804 -5z"/>
<path d="M985 2323 l1 -28 807 -3 807 -2 0 30 0 30 -808 0 -809 0 2 -27z"/>
<path d="M989 2228 c0 -2 -2 -15 -4 -30 l-4 -28 810 0 809 0 0 30 0 30 -805 0
c-443 0 -805 -1 -806 -2z"/>
<path d="M1004 2102 c-15 -2 -21 -10 -21 -28 0 -13 2 -25 6 -25 3 -1 367 -2
809 -3 l803 -1 -3 29 -3 29 -785 1 c-432 1 -795 0 -806 -2z"/>
<path d="M986 1971 c-3 -4 -4 -16 -2 -27 3 -19 19 -19 809 -22 l807 -2 0 29 0
29 -805 1 c-442 0 -807 -3 -809 -8z"/>
<path d="M989 1850 c0 -3 -2 -13 -4 -22 -2 -10 2 -21 8 -25 6 -3 368 -6 806
-6 l796 -1 3 30 3 29 -806 0 c-443 0 -805 -2 -806 -5z"/>
<path d="M984 1708 c3 -13 5 -26 5 -31 1 -4 363 -7 806 -7 l805 1 0 29 0 30
-810 0 -810 0 4 -22z"/>
<path d="M1670 805 l0 -805 30 0 29 0 1 805 0 805 -30 0 -30 0 0 -805z"/>
<path d="M1795 808 l0 -803 30 -3 30 -3 -2 768 c-1 422 -2 785 -2 806 -1 34
-3 37 -29 37 l-28 0 1 -802z"/>
<path d="M1920 805 l0 -805 30 0 30 0 0 805 0 805 -30 0 -30 0 0 -805z"/>
<path d="M2045 808 l0 -803 29 0 29 0 -1 785 c0 432 -1 793 -1 803 -1 12 -9
17 -29 17 l-27 0 0 -802z"/>
<path d="M2170 805 l0 -805 30 0 30 0 0 805 0 805 -30 0 -30 0 0 -805z"/>
<path d="M2295 805 l0 -805 30 0 30 0 0 805 0 805 -30 0 -30 0 0 -805z"/>
<path d="M2419 1598 c0 -7 -1 -368 -1 -803 l-1 -790 29 0 29 0 0 803 0 802
-27 0 c-16 0 -28 -6 -29 -12z"/>
<path d="M2540 805 l0 -805 30 0 30 0 0 805 0 805 -30 0 -30 0 0 -805z"/>
<path d="M0 899 l0 -29 811 0 810 0 -3 28 -3 27 -807 2 -808 2 0 -30z"/>
<path d="M2 775 l3 -30 790 0 c435 -1 798 1 807 3 18 4 26 51 11 53 -5 0 -369
1 -811 2 l-803 2 3 -30z"/>
<path d="M0 650 l0 -30 808 2 807 3 3 28 3 27 -810 0 -811 0 0 -30z"/>
<path d="M0 528 c0 -16 3 -28 8 -29 10 -1 1562 -1 1588 0 16 1 21 7 20 29 l-1
27 -807 0 -808 0 0 -27z"/>
<path d="M0 400 l0 -30 810 0 810 0 0 30 0 30 -810 0 -810 0 0 -30z"/>
<path d="M0 280 l0 -30 811 0 810 0 -3 28 -3 27 -807 3 -808 2 0 -30z"/>
<path d="M10 182 c-5 -2 -10 -16 -10 -30 l0 -27 808 0 807 0 3 28 c3 24 0 27
-25 28 -102 2 -1575 3 -1583 1z"/>
<path d="M0 29 l0 -29 811 0 810 0 -3 28 -3 27 -807 1 -808 2 0 -29z"/>
</g>
</svg>
